<?xml version="1.0" encoding="utf-8"?>
<!-- Generator: Adobe Illustrator 27.4.1, SVG Export Plug-In . SVG Version: 6.00 Build 0)  -->
<svg version="1.1" xmlns="http://www.w3.org/2000/svg" xmlns:xlink="http://www.w3.org/1999/xlink" x="0px" y="0px"
	 viewBox="0 0 1920 1080" style="enable-background:new 0 0 1920 1080;" xml:space="preserve">
<style type="text/css">
	.st0{display:none;}
	.st1{fill:#91B5D3;}
	.st2{fill:#026BAD;}
	.st3{display:inline;fill:#D4E2E8;}
	.st4{display:inline;fill:#E5F4F9;}
	.st5{display:inline;fill:#D3D3D3;}
	.st6{display:inline;fill:#40B0E5;}
	.st7{display:inline;}
	.st8{fill:#40B0E5;}
	.st9{fill:#E34141;}
	.st10{fill:#436E39;}
	.st11{fill:#665547;}
	.st12{fill:#4C9935;}
	.st13{fill:#AF9489;}
	.st14{fill:#9B8378;}
	.st15{fill:#6BAA41;}
	.st16{fill:#7B2020;}
	.st17{fill:none;stroke:#6C6C6C;stroke-width:8;stroke-linecap:round;stroke-linejoin:round;stroke-miterlimit:10;}
	.st18{fill:none;stroke:#EBBF34;stroke-width:8;stroke-linecap:round;stroke-linejoin:round;stroke-miterlimit:10;}
	.st19{fill:none;stroke:#202020;stroke-width:8;stroke-linecap:round;stroke-linejoin:round;stroke-miterlimit:10;}
	.st20{fill:#D1AF99;}
	.st21{fill:none;stroke:#674C3D;stroke-width:8;stroke-linecap:round;stroke-linejoin:round;stroke-miterlimit:10;}
	.st22{fill:none;stroke:#7B2020;stroke-width:8;stroke-linecap:round;stroke-miterlimit:10;}
	.st23{fill:#215A78;}
	.st24{fill:none;stroke:#215A78;stroke-width:12;stroke-linecap:round;stroke-linejoin:round;stroke-miterlimit:10;}
</style>
<g id="refs" class="st0">
	
		<image style="overflow:visible;" width="1294" height="732" xlink:href="EF38579B.jpg"  transform="matrix(1.5064 0 0 1.5064 -14.6596 -11.353)">
	</image>
	
		<image style="overflow:visible;" width="1331" height="744" xlink:href="EF385799.jpg"  transform="matrix(1.4843 0 0 1.4843 -27.7872 -12.1515)">
	</image>
	
		<image style="display:inline;overflow:visible;" width="1320" height="745" xlink:href="EF38579F.jpg"  transform="matrix(1.4823 0 0 1.4823 -17.7981 -11.9813)">
	</image>
	
		<image style="overflow:visible;" width="1013" height="385" xlink:href="EF385798.jpg"  transform="matrix(1 0 0 1 208.5426 241.9468)">
	</image>
</g>
<g id="sky">
	<rect x="-5" y="-5" class="st1" width="1930" height="1090"/>
</g>
<g id="water">
	<rect x="-5" y="882.1" class="st2" width="1930" height="202.9"/>
</g>
<g id="windmill_1" class="st0">
	<rect x="1719.5" y="389.5" class="st3" width="25.5" height="600.5"/>
	<path class="st4" d="M1833.1,335.7l-34.1,26.2l-49.1,37.8l-8.2,61.4l-5.7,42.6c-1,7.7-6.7,7.7-7.8,0l-5.7-42.6l-8.2-61.4l-49-37.8
		l-34.1-26.2c-6.1-4.7-3.3-9.7,3.9-6.7l39.8,16.4l57.3,23.6l57.2-23.6l39.8-16.4C1836.4,326.1,1839.2,331,1833.1,335.7z"/>
	<circle class="st3" cx="1732.2" cy="389.5" r="18"/>
	<circle class="st4" cx="1732.2" cy="389.5" r="16"/>
</g>
<g id="windmill_2" class="st0">
	<rect x="1602.5" y="389.5" class="st3" width="25.5" height="600.5"/>
	<path class="st4" d="M1716.1,335.7l-34.1,26.2l-49.1,37.8l-8.2,61.4l-5.7,42.6c-1,7.7-6.7,7.7-7.8,0l-5.7-42.6l-8.2-61.4l-49-37.8
		l-34.1-26.2c-6.1-4.7-3.3-9.7,3.9-6.7l39.8,16.4l57.3,23.6l57.2-23.6l39.8-16.4C1719.4,326.1,1722.2,331,1716.1,335.7z"/>
	<circle class="st3" cx="1615.2" cy="389.5" r="18"/>
	<circle class="st4" cx="1615.2" cy="389.5" r="16"/>
</g>
<g id="geothermie" class="st0">
	<path class="st5" d="M1565,857.3h-300.2V247.5h196.1c16.4,16.4,30.8,34.6,43.3,54.1c9.8,15.2,18.4,31.3,26.1,48
		c3,6.6,5.9,13.2,8.6,20c6.3,15.6,11.7,31.7,16.5,48c1.9,6.6,3.7,13.3,5.4,20c4,15.8,7.4,31.9,10.2,48c1.2,6.7,2.3,13.3,3.2,20
		c2.4,16,4.3,32.1,5.7,48C1594.1,711.8,1565,857.3,1565,857.3z"/>
	<path class="st6" d="M1530.2,349.7h-178.4c-13.3,0-24-10.7-24-24v0c0-13.3,10.7-24,24-24h152.3
		C1513.9,316.9,1522.6,333,1530.2,349.7z"/>
	<path class="st6" d="M1555.3,417.7h-203.5c-13.3,0-24-10.7-24-24v0c0-13.3,10.7-24,24-24h187
		C1545.1,385.3,1550.6,401.3,1555.3,417.7z"/>
	<path class="st6" d="M1571,485.7h-219.2c-13.3,0-24-10.7-24-24v0c0-13.3,10.7-24,24-24h208.9C1564.8,453.5,1568.1,469.6,1571,485.7
		z"/>
	<path class="st6" d="M1579.9,553.7h-228.1c-13.3,0-24-10.7-24-24l0,0c0-13.3,10.7-24,24-24h222.4
		C1576.6,521.7,1578.5,537.8,1579.9,553.7z"/>
	<g class="st7">
		<path class="st8" d="M1422.8,793.1l18-10.4l18-10.4c2.7-1.5,6,0.4,6,3.5v12.1c31.2-8.7,54.2-37.4,54.2-71.3c0-40.8-33.2-74-74-74
			c-3.3,0-6-2.7-6-6c0-3.3,2.7-6,6-6c47.4,0,86,38.6,86,86c0,40.6-28.3,74.7-66.2,83.7v17.1c0,3.1-3.3,5-6,3.5l-18-10.4l-18-10.4
			C1420.2,798.5,1420.2,794.7,1422.8,793.1z"/>
	</g>
	<g class="st7">
		<path class="st9" d="M1327,716.6c0-39.9,27.3-73.5,64.1-83.2v-17.6c0-3.1,3.3-5,6-3.5l18,10.4l18,10.4c2.7,1.5,2.7,5.4,0,6.9
			l-36,20.8c-2.7,1.5-6-0.4-6-3.5v-11.5c-30.2,9.3-52.1,37.5-52.1,70.7c0,40.8,33.2,74,74,74c3.3,0,6,2.7,6,6c0,3.3-2.7,6-6,6
			C1365.6,802.6,1327,764,1327,716.6z"/>
	</g>
</g>
<g id="tree_2_copy">
	<ellipse class="st10" cx="1404.5" cy="517.9" rx="84.2" ry="54"/>
	<ellipse class="st10" cx="1563" cy="517.9" rx="130.4" ry="63.9"/>
	<path class="st11" d="M1372.7,858.3c0,0,63,0,64.9-114.2c1.9-114.2-3.7-122.9-8.1-131c-4.4-8.1-25.2-52.4-24.1-71.1h44.7
		c0,0-8.1,73,17.5,79.2c25.6,6.2,40.6-64.9,40.6-68h35.6c0,0-33.7,73-40.6,81.1c-6.9,8.1-18.7,21.2-20.6,51.2
		c-1.9,29.9-7.5,169.1,20,172.8H1372.7z"/>
	<ellipse class="st12" cx="1404.5" cy="498" rx="84.2" ry="54"/>
	<ellipse class="st12" cx="1563" cy="498" rx="130.4" ry="63.9"/>
	<ellipse class="st12" cx="1488.8" cy="438.1" rx="130.4" ry="63.9"/>
	<ellipse class="st12" cx="1519.3" cy="390.1" rx="94.8" ry="63.9"/>
	<ellipse class="st12" cx="1584.8" cy="438.1" rx="75.5" ry="63.9"/>
</g>
<g id="house_1">
	<rect x="926.3" y="534.3" class="st13" width="394" height="320"/>
	<rect x="926.3" y="694.3" class="st14" width="394" height="160"/>
	<path class="st8" d="M1320.3,794.5h-216.5c-13.3,0-24-10.7-24-24l0,0c0-13.3,10.7-24,24-24h216.5V794.5z"/>
	<path class="st8" d="M926.3,594.3h216.5c13.3,0,24,10.7,24,24v0c0,13.3-10.7,24-24,24H926.3V594.3z"/>
</g>
<g id="tree_2">
	<ellipse class="st10" cx="835" cy="517.9" rx="84.2" ry="54"/>
	<ellipse class="st10" cx="993.5" cy="517.9" rx="130.4" ry="63.9"/>
	<path class="st11" d="M803.2,858.3c0,0,63,0,64.9-114.2s-3.7-122.9-8.1-131c-4.4-8.1-25.2-52.4-24.1-71.1h44.7
		c0,0-8.1,73,17.5,79.2c25.6,6.2,40.6-64.9,40.6-68h35.6c0,0-33.7,73-40.6,81.1c-6.9,8.1-18.7,21.2-20.6,51.2
		c-1.9,29.9-7.5,169.1,20,172.8H803.2z"/>
	<ellipse class="st12" cx="835" cy="498" rx="84.2" ry="54"/>
	<ellipse class="st12" cx="993.5" cy="498" rx="130.4" ry="63.9"/>
	<ellipse class="st12" cx="919.2" cy="438.1" rx="130.4" ry="63.9"/>
	<ellipse class="st12" cx="949.8" cy="390.1" rx="94.8" ry="63.9"/>
	<ellipse class="st12" cx="1015.3" cy="438.1" rx="75.5" ry="63.9"/>
</g>
<g id="house_2">
	<rect x="463.4" y="534.3" class="st13" width="394" height="313.7"/>
	<rect x="660.4" y="694.3" class="st14" width="197" height="160"/>
	<rect x="660.4" y="454.2" class="st14" width="197" height="80"/>
	<rect x="463.4" y="694.5" class="st14" width="32" height="159.7"/>
	
		<rect x="561.9" y="627.1" transform="matrix(-1.836970e-16 1 -1 -1.836970e-16 1288.4427 132.6053)" class="st14" width="32" height="166.9"/>
	<path class="st8" d="M857.4,794.5H727.9c-13.3,0-24-10.7-24-24l0,0c0-13.3,10.7-24,24-24h129.5V794.5z"/>
	<path class="st8" d="M857.4,506.2H715.9c-6.6,0-12-5.4-12-12l0,0c0-6.6,5.4-12,12-12h141.5V506.2z"/>
	<path class="st8" d="M463.4,594.3h216.5c13.3,0,24,10.7,24,24v0c0,13.3-10.7,24-24,24H463.4V594.3z"/>
</g>
<g id="tree_1">
	<ellipse class="st10" cx="321.9" cy="579.7" rx="68.9" ry="44.2"/>
	<ellipse class="st10" cx="451.6" cy="579.7" rx="106.7" ry="52.3"/>
	<path class="st11" d="M295.8,858.3c0,0,51.6,0,53.1-93.4s-3.1-100.6-6.6-107.2c-3.6-6.6-20.6-42.9-19.8-58.2h36.6
		c0,0-6.6,59.7,14.3,64.9c20.9,5.1,33.2-53.1,33.2-55.7h29.1c0,0-27.6,59.7-33.2,66.4c-5.6,6.6-15.3,17.4-16.9,41.9
		c-1.5,24.5-6.1,138.4,16.3,141.4H295.8z"/>
	<ellipse class="st12" cx="321.9" cy="563.4" rx="68.9" ry="44.2"/>
	<ellipse class="st12" cx="451.6" cy="563.4" rx="106.7" ry="52.3"/>
	<ellipse class="st12" cx="390.8" cy="514.4" rx="106.7" ry="52.3"/>
	<ellipse class="st12" cx="415.8" cy="475.1" rx="77.6" ry="52.3"/>
	<ellipse class="st12" cx="469.4" cy="514.4" rx="61.8" ry="52.3"/>
</g>
<g id="grass">
	<polygon class="st15" points="1860.8,853.5 1802.2,853.5 1772.6,974.4 1751.5,974.4 1633.7,848.1 286.3,848.1 168.5,974.4 
		147.4,974.4 117.8,853.5 59.2,853.5 32.7,974.4 -5,974.4 -5,1085 1925,1085 1925,974.4 1887.3,974.4 	"/>
</g>
<g id="fietsen_copy_2">
	<polygon class="st16" points="466.8,752.8 444.8,760.5 418.8,704.2 440.7,696.5 	"/>
	<path class="st17" d="M446.2,785.9c0,0,15.7-20.4,23.9-21.1h-24.7"/>
	<path class="st17" d="M405.4,749.9h-50c0,0-0.2,20.6,13,26.1c13.2,5.5,0,37.9,0,37.9"/>
	<polygon class="st18" points="368.4,776.1 452.6,776.1 504.7,828.1 422,828.1 	"/>
	<circle class="st19" cx="368.4" cy="827.6" r="28.3"/>
	<circle class="st19" cx="503.1" cy="827.6" r="28.3"/>
	<line class="st18" x1="422" y1="828.1" x2="452.6" y2="776.1"/>
	<circle class="st20" cx="427.9" cy="692.1" r="15"/>
	<path class="st21" d="M412.9,677.1h22c4.4,0,8,3.6,8,8v7"/>
	<path class="st22" d="M436.6,714.5c0,0-5.5,35.4-41.4,35.4"/>
	<polygon class="st23" points="466.8,752.8 466.8,761.1 445.1,761.1 442.1,754.7 463.4,745.5 	"/>
	<path class="st24" d="M454.5,758.7c0,0-45.5,9.4-30.2,60.3"/>
</g>
<g id="fietsen_copy">
	<polygon class="st16" points="1574.7,752.8 1552.8,760.5 1526.7,704.2 1548.7,696.5 	"/>
	<path class="st17" d="M1554.1,785.9c0,0,15.7-20.4,23.9-21.1h-24.7"/>
	<path class="st17" d="M1513.3,749.9h-50c0,0-0.2,20.6,13,26.1c13.2,5.5,0,37.9,0,37.9"/>
	<polygon class="st18" points="1476.3,776.1 1560.6,776.1 1612.7,828.1 1529.9,828.1 	"/>
	<circle class="st19" cx="1476.3" cy="827.6" r="28.3"/>
	<circle class="st19" cx="1611" cy="827.6" r="28.3"/>
	<line class="st18" x1="1529.9" y1="828.1" x2="1560.6" y2="776.1"/>
	<circle class="st20" cx="1535.8" cy="692.1" r="15"/>
	<path class="st21" d="M1520.8,677.1h22c4.4,0,8,3.6,8,8v7"/>
	<path class="st22" d="M1544.5,714.5c0,0-5.5,35.4-41.4,35.4"/>
	<polygon class="st23" points="1574.7,752.8 1574.7,761.1 1553,761.1 1550.1,754.7 1571.4,745.5 	"/>
	<path class="st24" d="M1562.4,758.7c0,0-45.5,9.4-30.2,60.3"/>
</g>
<g id="fietsen">
	<polygon class="st16" points="846.4,752.8 824.4,760.5 798.4,704.2 820.3,696.5 	"/>
	<path class="st17" d="M825.8,785.9c0,0,15.7-20.4,23.9-21.1H825"/>
	<path class="st17" d="M785,749.9h-50c0,0-0.2,20.6,13,26.1c13.2,5.5,0,37.9,0,37.9"/>
	<polygon class="st18" points="748,776.1 832.2,776.1 884.3,828.1 801.6,828.1 	"/>
	<circle class="st19" cx="748" cy="827.6" r="28.3"/>
	<circle class="st19" cx="882.7" cy="827.6" r="28.3"/>
	<line class="st18" x1="801.6" y1="828.1" x2="832.2" y2="776.1"/>
	<circle class="st20" cx="807.5" cy="692.1" r="15"/>
	<path class="st21" d="M792.5,677.1h22c4.4,0,8,3.6,8,8v7"/>
	<path class="st22" d="M816.1,714.5c0,0-5.5,35.4-41.4,35.4"/>
	<polygon class="st23" points="846.4,752.8 846.4,761.1 824.7,761.1 821.7,754.7 843,745.5 	"/>
	<path class="st24" d="M834.1,758.7c0,0-45.5,9.4-30.2,60.3"/>
</g>
</svg>
