<?xml version="1.0" encoding="utf-8"?>
<!-- Generator: Adobe Illustrator 27.4.1, SVG Export Plug-In . SVG Version: 6.00 Build 0)  -->
<svg version="1.1" xmlns="http://www.w3.org/2000/svg" xmlns:xlink="http://www.w3.org/1999/xlink" x="0px" y="0px"
	 viewBox="0 0 1920 1080" style="enable-background:new 0 0 1920 1080;" xml:space="preserve">
<style type="text/css">
	.st0{display:none;}
	.st1{display:inline;fill:#AF9489;}
	.st2{display:inline;fill:#9B8378;}
	.st3{display:inline;fill:#40B0E5;}
	.st4{fill:#91B5D3;}
	.st5{fill:#026BAD;}
	.st6{display:inline;fill:#436E39;}
	.st7{display:inline;fill:#665547;}
	.st8{display:inline;fill:#4C9935;}
	.st9{fill:#436E39;}
	.st10{fill:#665547;}
	.st11{fill:#4C9935;}
	.st12{fill:none;stroke:#436E39;stroke-width:8;stroke-linecap:round;stroke-linejoin:round;stroke-miterlimit:10;}
	.st13{fill:#C6B76D;}
	.st14{fill:#6BAA41;}
</style>
<g id="refs" class="st0">
	
		<image style="overflow:visible;" width="1294" height="732" xlink:href="98A3BB1F.jpg"  transform="matrix(1.5064 0 0 1.5064 -14.6596 -11.353)">
	</image>
	
		<image style="overflow:visible;" width="1331" height="744" xlink:href="98A3BB1D.jpg"  transform="matrix(1.4843 0 0 1.4843 -27.7872 -12.1515)">
	</image>
	
		<image style="display:inline;overflow:visible;" width="1320" height="745" xlink:href="98A3BB23.jpg"  transform="matrix(1.4823 0 0 1.4823 -17.7981 -11.9813)">
	</image>
	
		<image style="overflow:visible;" width="1013" height="385" xlink:href="98A3BB25.jpg"  transform="matrix(1 0 0 1 208.5426 241.9468)">
	</image>
</g>
<g id="house_1" class="st0">
	<rect x="926.3" y="534.3" class="st1" width="394" height="320"/>
	<rect x="926.3" y="694.3" class="st2" width="394" height="160"/>
	<path class="st3" d="M1320.3,794.5h-216.5c-13.3,0-24-10.7-24-24l0,0c0-13.3,10.7-24,24-24h216.5V794.5z"/>
	<path class="st3" d="M926.3,594.3h216.5c13.3,0,24,10.7,24,24v0c0,13.3-10.7,24-24,24H926.3V594.3z"/>
</g>
<g id="house_2" class="st0">
	<rect x="463.4" y="534.3" class="st1" width="394" height="313.7"/>
	<rect x="660.4" y="694.3" class="st2" width="197" height="160"/>
	<rect x="660.4" y="454.2" class="st2" width="197" height="80"/>
	<rect x="463.4" y="694.5" class="st2" width="32" height="159.7"/>
	
		<rect x="561.9" y="627.1" transform="matrix(-1.836970e-16 1 -1 -1.836970e-16 1288.4427 132.6053)" class="st2" width="32" height="166.9"/>
	<path class="st3" d="M857.4,794.5H727.9c-13.3,0-24-10.7-24-24l0,0c0-13.3,10.7-24,24-24h129.5V794.5z"/>
	<path class="st3" d="M857.4,506.2H715.9c-6.6,0-12-5.4-12-12l0,0c0-6.6,5.4-12,12-12h141.5V506.2z"/>
	<path class="st3" d="M463.4,594.3h216.5c13.3,0,24,10.7,24,24v0c0,13.3-10.7,24-24,24H463.4V594.3z"/>
</g>
<g id="sky">
	<rect x="-5" class="st4" width="1930" height="1085"/>
</g>
<g id="water">
	<rect x="-5" y="882.1" class="st5" width="1930" height="202.9"/>
</g>
<g id="tree_2_copy" class="st0">
	<ellipse class="st6" cx="1404.5" cy="517.9" rx="84.2" ry="54"/>
	<ellipse class="st6" cx="1563" cy="517.9" rx="130.4" ry="63.9"/>
	<path class="st7" d="M1372.7,858.3c0,0,63,0,64.9-114.2c1.9-114.2-3.7-122.9-8.1-131c-4.4-8.1-25.2-52.4-24.1-71.1h44.7
		c0,0-8.1,73,17.5,79.2c25.6,6.2,40.6-64.9,40.6-68h35.6c0,0-33.7,73-40.6,81.1c-6.9,8.1-18.7,21.2-20.6,51.2
		c-1.9,29.9-7.5,169.1,20,172.8H1372.7z"/>
	<ellipse class="st8" cx="1404.5" cy="498" rx="84.2" ry="54"/>
	<ellipse class="st8" cx="1563" cy="498" rx="130.4" ry="63.9"/>
	<ellipse class="st8" cx="1488.8" cy="438.1" rx="130.4" ry="63.9"/>
	<ellipse class="st8" cx="1519.3" cy="390.1" rx="94.8" ry="63.9"/>
	<ellipse class="st8" cx="1584.8" cy="438.1" rx="75.5" ry="63.9"/>
</g>
<g id="tree_2" class="st0">
	<ellipse class="st6" cx="835" cy="517.9" rx="84.2" ry="54"/>
	<ellipse class="st6" cx="993.5" cy="517.9" rx="130.4" ry="63.9"/>
	<path class="st7" d="M803.2,858.3c0,0,63,0,64.9-114.2s-3.7-122.9-8.1-131c-4.4-8.1-25.2-52.4-24.1-71.1h44.7c0,0-8.1,73,17.5,79.2
		c25.6,6.2,40.6-64.9,40.6-68h35.6c0,0-33.7,73-40.6,81.1c-6.9,8.1-18.7,21.2-20.6,51.2c-1.9,29.9-7.5,169.1,20,172.8H803.2z"/>
	<ellipse class="st8" cx="835" cy="498" rx="84.2" ry="54"/>
	<ellipse class="st8" cx="993.5" cy="498" rx="130.4" ry="63.9"/>
	<ellipse class="st8" cx="919.2" cy="438.1" rx="130.4" ry="63.9"/>
	<ellipse class="st8" cx="949.8" cy="390.1" rx="94.8" ry="63.9"/>
	<ellipse class="st8" cx="1015.3" cy="438.1" rx="75.5" ry="63.9"/>
</g>
<g id="tree_1_copy_2">
	<ellipse class="st9" cx="1510.6" cy="579.7" rx="68.9" ry="44.2"/>
	<ellipse class="st9" cx="1640.3" cy="579.7" rx="106.7" ry="52.3"/>
	<path class="st10" d="M1484.6,858.3c0,0,51.6,0,53.1-93.4c1.5-93.4-3.1-100.6-6.6-107.2s-20.6-42.9-19.8-58.2h36.6
		c0,0-6.6,59.7,14.3,64.9s33.2-53.1,33.2-55.7h29.1c0,0-27.6,59.7-33.2,66.4c-5.6,6.6-15.3,17.4-16.9,41.9
		c-1.5,24.5-6.1,138.4,16.3,141.4H1484.6z"/>
	<ellipse class="st11" cx="1510.6" cy="563.4" rx="68.9" ry="44.2"/>
	<ellipse class="st11" cx="1640.3" cy="563.4" rx="106.7" ry="52.3"/>
	<ellipse class="st11" cx="1579.6" cy="514.4" rx="106.7" ry="52.3"/>
	<ellipse class="st11" cx="1604.6" cy="475.1" rx="77.6" ry="52.3"/>
	<ellipse class="st11" cx="1658.2" cy="514.4" rx="61.8" ry="52.3"/>
</g>
<g id="tree_1_copy">
	<ellipse class="st9" cx="897.9" cy="579.7" rx="68.9" ry="44.2"/>
	<ellipse class="st9" cx="1027.6" cy="579.7" rx="106.7" ry="52.3"/>
	<path class="st10" d="M871.8,858.3c0,0,51.6,0,53.1-93.4s-3.1-100.6-6.6-107.2s-20.6-42.9-19.8-58.2h36.6c0,0-6.6,59.7,14.3,64.9
		s33.2-53.1,33.2-55.7h29.1c0,0-27.6,59.7-33.2,66.4s-15.3,17.4-16.9,41.9c-1.5,24.5-6.1,138.4,16.3,141.4H871.8z"/>
	<ellipse class="st11" cx="897.9" cy="563.4" rx="68.9" ry="44.2"/>
	<ellipse class="st11" cx="1027.6" cy="563.4" rx="106.7" ry="52.3"/>
	<ellipse class="st11" cx="966.8" cy="514.4" rx="106.7" ry="52.3"/>
	<ellipse class="st11" cx="991.8" cy="475.1" rx="77.6" ry="52.3"/>
	<ellipse class="st11" cx="1045.4" cy="514.4" rx="61.8" ry="52.3"/>
</g>
<g id="graan">
	<line class="st12" x1="472.1" y1="848.1" x2="472.1" y2="756.1"/>
	<path class="st13" d="M472.1,823.2h-15c-8.3,0-15-6.7-15-15v-15h15.1c8.2,0,14.9,6.7,14.9,14.9V823.2z"/>
	<path class="st13" d="M472.1,793.2h-15c-8.3,0-15-6.7-15-15v-15h15.1c8.2,0,14.9,6.7,14.9,14.9V793.2z"/>
	<path class="st13" d="M472.1,763.2h-15c-8.3,0-15-6.7-15-15v-15h15.1c8.2,0,14.9,6.7,14.9,14.9V763.2z"/>
	<path class="st13" d="M472.1,808.2h15c8.3,0,15-6.7,15-15v-15H487c-8.2,0-14.9,6.7-14.9,14.9V808.2z"/>
	<path class="st13" d="M472.1,778.2h15c8.3,0,15-6.7,15-15v-15H487c-8.2,0-14.9,6.7-14.9,14.9V778.2z"/>
	<path class="st13" d="M472.1,748.2h15c8.3,0,15-6.7,15-15v-15H487c-8.2,0-14.9,6.7-14.9,14.9V748.2z"/>
	<line class="st12" x1="541.2" y1="848.1" x2="541.2" y2="756.1"/>
	<path class="st13" d="M541.2,823.2h-15c-8.3,0-15-6.7-15-15v-15h15.1c8.2,0,14.9,6.7,14.9,14.9V823.2z"/>
	<path class="st13" d="M541.2,793.2h-15c-8.3,0-15-6.7-15-15v-15h15.1c8.2,0,14.9,6.7,14.9,14.9V793.2z"/>
	<path class="st13" d="M541.2,763.2h-15c-8.3,0-15-6.7-15-15v-15h15.1c8.2,0,14.9,6.7,14.9,14.9V763.2z"/>
	<path class="st13" d="M541.2,808.2h15c8.3,0,15-6.7,15-15v-15h-15.1c-8.2,0-14.9,6.7-14.9,14.9V808.2z"/>
	<path class="st13" d="M541.2,778.2h15c8.3,0,15-6.7,15-15v-15h-15.1c-8.2,0-14.9,6.7-14.9,14.9V778.2z"/>
	<path class="st13" d="M541.2,748.2h15c8.3,0,15-6.7,15-15v-15h-15.1c-8.2,0-14.9,6.7-14.9,14.9V748.2z"/>
	<line class="st12" x1="611.6" y1="848.1" x2="611.6" y2="756.1"/>
	<path class="st13" d="M611.6,823.2h-15c-8.3,0-15-6.7-15-15v-15h15.1c8.2,0,14.9,6.7,14.9,14.9V823.2z"/>
	<path class="st13" d="M611.6,793.2h-15c-8.3,0-15-6.7-15-15v-15h15.1c8.2,0,14.9,6.7,14.9,14.9V793.2z"/>
	<path class="st13" d="M611.6,763.2h-15c-8.3,0-15-6.7-15-15v-15h15.1c8.2,0,14.9,6.7,14.9,14.9V763.2z"/>
	<path class="st13" d="M611.6,808.2h15c8.3,0,15-6.7,15-15v-15h-15.1c-8.2,0-14.9,6.7-14.9,14.9V808.2z"/>
	<path class="st13" d="M611.6,778.2h15c8.3,0,15-6.7,15-15v-15h-15.1c-8.2,0-14.9,6.7-14.9,14.9V778.2z"/>
	<path class="st13" d="M611.6,748.2h15c8.3,0,15-6.7,15-15v-15h-15.1c-8.2,0-14.9,6.7-14.9,14.9V748.2z"/>
</g>
<g id="graan_copy">
	<line class="st12" x1="683.3" y1="848.1" x2="683.3" y2="756.1"/>
	<path class="st13" d="M683.3,823.2h-15c-8.3,0-15-6.7-15-15v-15h15.1c8.2,0,14.9,6.7,14.9,14.9V823.2z"/>
	<path class="st13" d="M683.3,793.2h-15c-8.3,0-15-6.7-15-15v-15h15.1c8.2,0,14.9,6.7,14.9,14.9V793.2z"/>
	<path class="st13" d="M683.3,763.2h-15c-8.3,0-15-6.7-15-15v-15h15.1c8.2,0,14.9,6.7,14.9,14.9V763.2z"/>
	<path class="st13" d="M683.3,808.2h15c8.3,0,15-6.7,15-15v-15h-15.1c-8.2,0-14.9,6.7-14.9,14.9V808.2z"/>
	<path class="st13" d="M683.3,778.2h15c8.3,0,15-6.7,15-15v-15h-15.1c-8.2,0-14.9,6.7-14.9,14.9V778.2z"/>
	<path class="st13" d="M683.3,748.2h15c8.3,0,15-6.7,15-15v-15h-15.1c-8.2,0-14.9,6.7-14.9,14.9V748.2z"/>
	<line class="st12" x1="752.4" y1="848.1" x2="752.4" y2="756.1"/>
	<path class="st13" d="M752.4,823.2h-15c-8.3,0-15-6.7-15-15v-15h15.1c8.2,0,14.9,6.7,14.9,14.9V823.2z"/>
	<path class="st13" d="M752.4,793.2h-15c-8.3,0-15-6.7-15-15v-15h15.1c8.2,0,14.9,6.7,14.9,14.9V793.2z"/>
	<path class="st13" d="M752.4,763.2h-15c-8.3,0-15-6.7-15-15v-15h15.1c8.2,0,14.9,6.7,14.9,14.9V763.2z"/>
	<path class="st13" d="M752.4,808.2h15c8.3,0,15-6.7,15-15v-15h-15.1c-8.2,0-14.9,6.7-14.9,14.9V808.2z"/>
	<path class="st13" d="M752.4,778.2h15c8.3,0,15-6.7,15-15v-15h-15.1c-8.2,0-14.9,6.7-14.9,14.9V778.2z"/>
	<path class="st13" d="M752.4,748.2h15c8.3,0,15-6.7,15-15v-15h-15.1c-8.2,0-14.9,6.7-14.9,14.9V748.2z"/>
	<line class="st12" x1="822.8" y1="848.1" x2="822.8" y2="756.1"/>
	<path class="st13" d="M822.8,823.2h-15c-8.3,0-15-6.7-15-15v-15h15.1c8.2,0,14.9,6.7,14.9,14.9V823.2z"/>
	<path class="st13" d="M822.8,793.2h-15c-8.3,0-15-6.7-15-15v-15h15.1c8.2,0,14.9,6.7,14.9,14.9V793.2z"/>
	<path class="st13" d="M822.8,763.2h-15c-8.3,0-15-6.7-15-15v-15h15.1c8.2,0,14.9,6.7,14.9,14.9V763.2z"/>
	<path class="st13" d="M822.8,808.2h15c8.3,0,15-6.7,15-15v-15h-15.1c-8.2,0-14.9,6.7-14.9,14.9V808.2z"/>
	<path class="st13" d="M822.8,778.2h15c8.3,0,15-6.7,15-15v-15h-15.1c-8.2,0-14.9,6.7-14.9,14.9V778.2z"/>
	<path class="st13" d="M822.8,748.2h15c8.3,0,15-6.7,15-15v-15h-15.1c-8.2,0-14.9,6.7-14.9,14.9V748.2z"/>
</g>
<g id="graan_copy_2">
	<line class="st12" x1="1092.1" y1="848.1" x2="1092.1" y2="756.1"/>
	<path class="st13" d="M1092.1,823.2h-15c-8.3,0-15-6.7-15-15v-15h15.1c8.2,0,14.9,6.7,14.9,14.9V823.2z"/>
	<path class="st13" d="M1092.1,793.2h-15c-8.3,0-15-6.7-15-15v-15h15.1c8.2,0,14.9,6.7,14.9,14.9V793.2z"/>
	<path class="st13" d="M1092.1,763.2h-15c-8.3,0-15-6.7-15-15v-15h15.1c8.2,0,14.9,6.7,14.9,14.9V763.2z"/>
	<path class="st13" d="M1092.1,808.2h15c8.3,0,15-6.7,15-15v-15H1107c-8.2,0-14.9,6.7-14.9,14.9V808.2z"/>
	<path class="st13" d="M1092.1,778.2h15c8.3,0,15-6.7,15-15v-15H1107c-8.2,0-14.9,6.7-14.9,14.9V778.2z"/>
	<path class="st13" d="M1092.1,748.2h15c8.3,0,15-6.7,15-15v-15H1107c-8.2,0-14.9,6.7-14.9,14.9V748.2z"/>
	<line class="st12" x1="1161.2" y1="848.1" x2="1161.2" y2="756.1"/>
	<path class="st13" d="M1161.2,823.2h-15c-8.3,0-15-6.7-15-15v-15h15.1c8.2,0,14.9,6.7,14.9,14.9V823.2z"/>
	<path class="st13" d="M1161.2,793.2h-15c-8.3,0-15-6.7-15-15v-15h15.1c8.2,0,14.9,6.7,14.9,14.9V793.2z"/>
	<path class="st13" d="M1161.2,763.2h-15c-8.3,0-15-6.7-15-15v-15h15.1c8.2,0,14.9,6.7,14.9,14.9V763.2z"/>
	<path class="st13" d="M1161.2,808.2h15c8.3,0,15-6.7,15-15v-15h-15.1c-8.2,0-14.9,6.7-14.9,14.9V808.2z"/>
	<path class="st13" d="M1161.2,778.2h15c8.3,0,15-6.7,15-15v-15h-15.1c-8.2,0-14.9,6.7-14.9,14.9V778.2z"/>
	<path class="st13" d="M1161.2,748.2h15c8.3,0,15-6.7,15-15v-15h-15.1c-8.2,0-14.9,6.7-14.9,14.9V748.2z"/>
	<line class="st12" x1="1231.6" y1="848.1" x2="1231.6" y2="756.1"/>
	<path class="st13" d="M1231.6,823.2h-15c-8.3,0-15-6.7-15-15v-15h15.1c8.2,0,14.9,6.7,14.9,14.9V823.2z"/>
	<path class="st13" d="M1231.6,793.2h-15c-8.3,0-15-6.7-15-15v-15h15.1c8.2,0,14.9,6.7,14.9,14.9V793.2z"/>
	<path class="st13" d="M1231.6,763.2h-15c-8.3,0-15-6.7-15-15v-15h15.1c8.2,0,14.9,6.7,14.9,14.9V763.2z"/>
	<path class="st13" d="M1231.6,808.2h15c8.3,0,15-6.7,15-15v-15h-15.1c-8.2,0-14.9,6.7-14.9,14.9V808.2z"/>
	<path class="st13" d="M1231.6,778.2h15c8.3,0,15-6.7,15-15v-15h-15.1c-8.2,0-14.9,6.7-14.9,14.9V778.2z"/>
	<path class="st13" d="M1231.6,748.2h15c8.3,0,15-6.7,15-15v-15h-15.1c-8.2,0-14.9,6.7-14.9,14.9V748.2z"/>
</g>
<g id="graan_copy_3">
	<line class="st12" x1="1303.3" y1="848.1" x2="1303.3" y2="756.1"/>
	<path class="st13" d="M1303.3,823.2h-15c-8.3,0-15-6.7-15-15v-15h15.1c8.2,0,14.9,6.7,14.9,14.9V823.2z"/>
	<path class="st13" d="M1303.3,793.2h-15c-8.3,0-15-6.7-15-15v-15h15.1c8.2,0,14.9,6.7,14.9,14.9V793.2z"/>
	<path class="st13" d="M1303.3,763.2h-15c-8.3,0-15-6.7-15-15v-15h15.1c8.2,0,14.9,6.7,14.9,14.9V763.2z"/>
	<path class="st13" d="M1303.3,808.2h15c8.3,0,15-6.7,15-15v-15h-15.1c-8.2,0-14.9,6.7-14.9,14.9V808.2z"/>
	<path class="st13" d="M1303.3,778.2h15c8.3,0,15-6.7,15-15v-15h-15.1c-8.2,0-14.9,6.7-14.9,14.9V778.2z"/>
	<path class="st13" d="M1303.3,748.2h15c8.3,0,15-6.7,15-15v-15h-15.1c-8.2,0-14.9,6.7-14.9,14.9V748.2z"/>
	<line class="st12" x1="1372.4" y1="848.1" x2="1372.4" y2="756.1"/>
	<path class="st13" d="M1372.4,823.2h-15c-8.3,0-15-6.7-15-15v-15h15.1c8.2,0,14.9,6.7,14.9,14.9V823.2z"/>
	<path class="st13" d="M1372.4,793.2h-15c-8.3,0-15-6.7-15-15v-15h15.1c8.2,0,14.9,6.7,14.9,14.9V793.2z"/>
	<path class="st13" d="M1372.4,763.2h-15c-8.3,0-15-6.7-15-15v-15h15.1c8.2,0,14.9,6.7,14.9,14.9V763.2z"/>
	<path class="st13" d="M1372.4,808.2h15c8.3,0,15-6.7,15-15v-15h-15.1c-8.2,0-14.9,6.7-14.9,14.9V808.2z"/>
	<path class="st13" d="M1372.4,778.2h15c8.3,0,15-6.7,15-15v-15h-15.1c-8.2,0-14.9,6.7-14.9,14.9V778.2z"/>
	<path class="st13" d="M1372.4,748.2h15c8.3,0,15-6.7,15-15v-15h-15.1c-8.2,0-14.9,6.7-14.9,14.9V748.2z"/>
	<line class="st12" x1="1442.8" y1="848.1" x2="1442.8" y2="756.1"/>
	<path class="st13" d="M1442.8,823.2h-15c-8.3,0-15-6.7-15-15v-15h15.1c8.2,0,14.9,6.7,14.9,14.9V823.2z"/>
	<path class="st13" d="M1442.8,793.2h-15c-8.3,0-15-6.7-15-15v-15h15.1c8.2,0,14.9,6.7,14.9,14.9V793.2z"/>
	<path class="st13" d="M1442.8,763.2h-15c-8.3,0-15-6.7-15-15v-15h15.1c8.2,0,14.9,6.7,14.9,14.9V763.2z"/>
	<path class="st13" d="M1442.8,808.2h15c8.3,0,15-6.7,15-15v-15h-15.1c-8.2,0-14.9,6.7-14.9,14.9V808.2z"/>
	<path class="st13" d="M1442.8,778.2h15c8.3,0,15-6.7,15-15v-15h-15.1c-8.2,0-14.9,6.7-14.9,14.9V778.2z"/>
	<path class="st13" d="M1442.8,748.2h15c8.3,0,15-6.7,15-15v-15h-15.1c-8.2,0-14.9,6.7-14.9,14.9V748.2z"/>
</g>
<g id="tree_1">
	<ellipse class="st9" cx="321.9" cy="579.7" rx="68.9" ry="44.2"/>
	<ellipse class="st9" cx="451.6" cy="579.7" rx="106.7" ry="52.3"/>
	<path class="st10" d="M295.8,858.3c0,0,51.6,0,53.1-93.4s-3.1-100.6-6.6-107.2c-3.6-6.6-20.6-42.9-19.8-58.2h36.6
		c0,0-6.6,59.7,14.3,64.9c20.9,5.1,33.2-53.1,33.2-55.7h29.1c0,0-27.6,59.7-33.2,66.4c-5.6,6.6-15.3,17.4-16.9,41.9
		c-1.5,24.5-6.1,138.4,16.3,141.4H295.8z"/>
	<ellipse class="st11" cx="321.9" cy="563.4" rx="68.9" ry="44.2"/>
	<ellipse class="st11" cx="451.6" cy="563.4" rx="106.7" ry="52.3"/>
	<ellipse class="st11" cx="390.8" cy="514.4" rx="106.7" ry="52.3"/>
	<ellipse class="st11" cx="415.8" cy="475.1" rx="77.6" ry="52.3"/>
	<ellipse class="st11" cx="469.4" cy="514.4" rx="61.8" ry="52.3"/>
</g>
<g id="grass">
	<polygon class="st14" points="1860.8,853.5 1802.2,853.5 1772.6,974.4 1751.5,974.4 1633.7,848.1 286.3,848.1 168.5,974.4 
		147.4,974.4 117.8,853.5 59.2,853.5 32.7,974.4 -5,974.4 -5,1085 1925,1085 1925,974.4 1887.3,974.4 	"/>
</g>
</svg>
