<?xml version="1.0" encoding="utf-8"?>
<!-- Generator: Adobe Illustrator 27.4.1, SVG Export Plug-In . SVG Version: 6.00 Build 0)  -->
<svg version="1.1" xmlns="http://www.w3.org/2000/svg" xmlns:xlink="http://www.w3.org/1999/xlink" x="0px" y="0px"
	 viewBox="0 0 1920 1080" style="enable-background:new 0 0 1920 1080;" xml:space="preserve">
<style type="text/css">
	.st0{display:none;}
	.st1{fill:#91B5D3;}
	.st2{fill:#026BAD;}
	.st3{display:inline;fill:#D4E2E8;}
	.st4{display:inline;fill:#E5F4F9;}
	.st5{display:none;opacity:0.6;}
	.st6{display:inline;}
	.st7{fill:#40B0E5;}
	.st8{fill:#E34141;}
	.st9{fill:#D3D3D3;}
	.st10{fill:#AF9489;}
	.st11{fill:#9B8378;}
	.st12{display:inline;fill:#436E39;}
	.st13{display:inline;fill:#665547;}
	.st14{display:inline;fill:#4C9935;}
	.st15{fill:#6BAA41;}
</style>
<g id="refs" class="st0">
	
		<image style="overflow:visible;" width="1294" height="732" xlink:href="5206C7CC.jpg"  transform="matrix(1.5064 0 0 1.5064 -14.6596 -11.353)">
	</image>
	
		<image style="overflow:visible;" width="1331" height="744" xlink:href="5206C7CB.jpg"  transform="matrix(1.4843 0 0 1.4843 -27.7872 -12.1515)">
	</image>
	
		<image style="display:inline;overflow:visible;" width="1320" height="745" xlink:href="5206C7D4.jpg"  transform="matrix(1.4823 0 0 1.4823 -17.7981 -11.9813)">
	</image>
	
		<image style="overflow:visible;" width="1013" height="385" xlink:href="5206C7D7.jpg"  transform="matrix(1 0 0 1 208.5426 241.9468)">
	</image>
</g>
<g id="sky">
	<rect x="-5" y="-5" class="st1" width="1930" height="1090"/>
</g>
<g id="water">
	<rect x="-5" y="882.1" class="st2" width="1930" height="202.9"/>
</g>
<g id="windmill_1" class="st0">
	<rect x="1719.5" y="389.5" class="st3" width="25.5" height="600.5"/>
	<path class="st4" d="M1833.1,335.7l-34.1,26.2l-49.1,37.8l-8.2,61.4l-5.7,42.6c-1,7.7-6.7,7.7-7.8,0l-5.7-42.6l-8.2-61.4l-49-37.8
		l-34.1-26.2c-6.1-4.7-3.3-9.7,3.9-6.7l39.8,16.4l57.3,23.6l57.2-23.6l39.8-16.4C1836.4,326.1,1839.2,331,1833.1,335.7z"/>
	<circle class="st3" cx="1732.2" cy="389.5" r="18"/>
	<circle class="st4" cx="1732.2" cy="389.5" r="16"/>
</g>
<g id="windmill_2" class="st0">
	<rect x="1602.5" y="389.5" class="st3" width="25.5" height="600.5"/>
	<path class="st4" d="M1716.1,335.7l-34.1,26.2l-49.1,37.8l-8.2,61.4l-5.7,42.6c-1,7.7-6.7,7.7-7.8,0l-5.7-42.6l-8.2-61.4l-49-37.8
		l-34.1-26.2c-6.1-4.7-3.3-9.7,3.9-6.7l39.8,16.4l57.3,23.6l57.2-23.6l39.8-16.4C1719.4,326.1,1722.2,331,1716.1,335.7z"/>
	<circle class="st3" cx="1615.2" cy="389.5" r="18"/>
	<circle class="st4" cx="1615.2" cy="389.5" r="16"/>
</g>
<g id="Layer_13" class="st5">
	<g class="st6">
		<path class="st7" d="M426.4,811.3l81.2-46.8l81.2-46.9c12-6.9,27.1,1.8,27.1,15.6v54.4C756.5,748.5,860,619.1,860,466.1
			c0-183.9-149.7-333.6-333.6-333.6c-14.9,0-27.1-12.1-27.1-27.1c0-14.9,12.1-27.1,27.1-27.1c213.8,0,387.7,173.9,387.7,387.7
			c0,183-127.5,336.9-298.4,377.3v77.1c0,13.9-15,22.5-27.1,15.6l-81.2-46.8l-81.2-46.8C414.4,835.6,414.4,818.2,426.4,811.3z"/>
	</g>
	<g class="st6">
		<path class="st8" d="M-5.5,466.1c0-179.8,122.9-331.3,289.1-375V11.8c0-13.9,15.1-22.6,27.1-15.6L391.9,43L473,89.8
			c12,6.9,12,24.3,0,31.2l-162.3,93.7c-12,6.9-27.1-1.7-27.1-15.6v-51.8c-136,42.2-235,169.1-235,318.8
			c0,184,149.7,333.6,333.6,333.6c15,0,27.1,12.1,27.1,27.1c0,15-12.1,27.1-27.1,27.1C168.5,853.9-5.5,679.9-5.5,466.1z"/>
	</g>
</g>
<g id="geothermie">
	<path class="st9" d="M673.5,857.3H373.2V247.5h196.1c16.4,16.4,30.8,34.6,43.3,54.1c9.8,15.2,18.4,31.3,26.1,48
		c3,6.6,5.9,13.2,8.6,20c6.3,15.6,11.7,31.7,16.5,48c1.9,6.6,3.7,13.3,5.4,20c4,15.8,7.4,31.9,10.2,48c1.2,6.7,2.3,13.3,3.2,20
		c2.4,16,4.3,32.1,5.7,48C702.5,711.8,673.5,857.3,673.5,857.3z"/>
	<path class="st7" d="M638.7,349.7H460.2c-13.3,0-24-10.7-24-24v0c0-13.3,10.7-24,24-24h152.3C622.4,316.9,631,333,638.7,349.7z"/>
	<path class="st7" d="M663.7,417.7H460.2c-13.3,0-24-10.7-24-24v0c0-13.3,10.7-24,24-24h187C653.5,385.3,659,401.3,663.7,417.7z"/>
	<path class="st7" d="M679.4,485.7H460.2c-13.3,0-24-10.7-24-24v0c0-13.3,10.7-24,24-24h208.9C673.2,453.5,676.6,469.6,679.4,485.7z
		"/>
	<path class="st7" d="M688.3,553.7H460.2c-13.3,0-24-10.7-24-24l0,0c0-13.3,10.7-24,24-24h222.4C685,521.7,686.9,537.8,688.3,553.7z
		"/>
	<g>
		<path class="st7" d="M531.3,793.1l18-10.4l18-10.4c2.7-1.5,6,0.4,6,3.5v12.1c31.2-8.7,54.2-37.4,54.2-71.3c0-40.8-33.2-74-74-74
			c-3.3,0-6-2.7-6-6c0-3.3,2.7-6,6-6c47.4,0,86,38.6,86,86c0,40.6-28.3,74.7-66.2,83.7v17.1c0,3.1-3.3,5-6,3.5l-18-10.4l-18-10.4
			C528.6,798.5,528.6,794.7,531.3,793.1z"/>
	</g>
	<g>
		<path class="st8" d="M435.5,716.6c0-39.9,27.3-73.5,64.1-83.2v-17.6c0-3.1,3.3-5,6-3.5l18,10.4l18,10.4c2.7,1.5,2.7,5.4,0,6.9
			l-36,20.8c-2.7,1.5-6-0.4-6-3.5v-11.5c-30.2,9.3-52.1,37.5-52.1,70.7c0,40.8,33.2,74,74,74c3.3,0,6,2.7,6,6c0,3.3-2.7,6-6,6
			C474,802.6,435.5,764,435.5,716.6z"/>
	</g>
</g>
<g id="house_1">
	<rect x="1376.6" y="651.9" class="st10" width="252.9" height="205.4"/>
	<rect x="1376.6" y="754.6" class="st11" width="252.9" height="102.7"/>
	<path class="st7" d="M1629.4,818.9h-138.9c-8.5,0-15.4-6.9-15.4-15.4v0c0-8.5,6.9-15.4,15.4-15.4h138.9V818.9z"/>
	<path class="st7" d="M1376.6,690.4h138.9c8.5,0,15.4,6.9,15.4,15.4l0,0c0,8.5-6.9,15.4-15.4,15.4h-138.9V690.4z"/>
</g>
<g id="tree_2" class="st0">
	<ellipse class="st12" cx="835" cy="517.9" rx="84.2" ry="54"/>
	<ellipse class="st12" cx="993.5" cy="517.9" rx="130.4" ry="63.9"/>
	<path class="st13" d="M803.2,858.3c0,0,63,0,64.9-114.2s-3.7-122.9-8.1-131c-4.4-8.1-25.2-52.4-24.1-71.1h44.7
		c0,0-8.1,73,17.5,79.2c25.6,6.2,40.6-64.9,40.6-68h35.6c0,0-33.7,73-40.6,81.1c-6.9,8.1-18.7,21.2-20.6,51.2
		c-1.9,29.9-7.5,169.1,20,172.8H803.2z"/>
	<ellipse class="st14" cx="835" cy="498" rx="84.2" ry="54"/>
	<ellipse class="st14" cx="993.5" cy="498" rx="130.4" ry="63.9"/>
	<ellipse class="st14" cx="919.2" cy="438.1" rx="130.4" ry="63.9"/>
	<ellipse class="st14" cx="949.8" cy="390.1" rx="94.8" ry="63.9"/>
	<ellipse class="st14" cx="1015.3" cy="438.1" rx="75.5" ry="63.9"/>
</g>
<g id="house_2">
	<rect x="1079.5" y="651.9" class="st10" width="252.9" height="201.3"/>
	<rect x="1206" y="754.6" class="st11" width="126.4" height="102.7"/>
	<rect x="1206" y="600.5" class="st11" width="126.4" height="51.3"/>
	<rect x="1079.6" y="754.7" class="st11" width="20.5" height="102.5"/>
	
		<rect x="1142.8" y="711.4" transform="matrix(-1.836970e-16 1 -1 -1.836970e-16 1918.0009 -388.0529)" class="st11" width="20.5" height="107.1"/>
	<path class="st7" d="M1332.4,818.9h-83.1c-8.5,0-15.4-6.9-15.4-15.4v0c0-8.5,6.9-15.4,15.4-15.4h83.1V818.9z"/>
	<path class="st7" d="M1332.4,633.8h-90.8c-4.3,0-7.7-3.4-7.7-7.7l0,0c0-4.3,3.4-7.7,7.7-7.7h90.8V633.8z"/>
	<path class="st7" d="M1079.5,690.4h138.9c8.5,0,15.4,6.9,15.4,15.4l0,0c0,8.5-6.9,15.4-15.4,15.4h-138.9V690.4z"/>
</g>
<g id="tree_1" class="st0">
	<ellipse class="st12" cx="321.9" cy="579.7" rx="68.9" ry="44.2"/>
	<ellipse class="st12" cx="451.6" cy="579.7" rx="106.7" ry="52.3"/>
	<path class="st13" d="M295.8,858.3c0,0,51.6,0,53.1-93.4s-3.1-100.6-6.6-107.2c-3.6-6.6-20.6-42.9-19.8-58.2h36.6
		c0,0-6.6,59.7,14.3,64.9c20.9,5.1,33.2-53.1,33.2-55.7h29.1c0,0-27.6,59.7-33.2,66.4c-5.6,6.6-15.3,17.4-16.9,41.9
		c-1.5,24.5-6.1,138.4,16.3,141.4H295.8z"/>
	<ellipse class="st14" cx="321.9" cy="563.4" rx="68.9" ry="44.2"/>
	<ellipse class="st14" cx="451.6" cy="563.4" rx="106.7" ry="52.3"/>
	<ellipse class="st14" cx="390.8" cy="514.4" rx="106.7" ry="52.3"/>
	<ellipse class="st14" cx="415.8" cy="475.1" rx="77.6" ry="52.3"/>
	<ellipse class="st14" cx="469.4" cy="514.4" rx="61.8" ry="52.3"/>
</g>
<g id="grass">
	<polygon class="st15" points="1860.8,853.5 1802.2,853.5 1772.6,974.4 1751.5,974.4 1633.7,848.1 286.3,848.1 168.5,974.4 
		147.4,974.4 117.8,853.5 59.2,853.5 32.7,974.4 -5,974.4 -5,1085 1925,1085 1925,974.4 1887.3,974.4 	"/>
</g>
<g id="Layer_12">
	<rect x="480.4" y="848.1" class="st8" width="12" height="236.9"/>
	
		<rect x="1042.9" y="322.4" transform="matrix(6.123234e-17 -1 1 6.123234e-17 157.976 1939.8831)" class="st8" width="12" height="1137"/>
	<rect x="1308.4" y="848.1" class="st8" width="12" height="42.9"/>
	<rect x="1284.4" y="848.1" class="st7" width="12" height="82.6"/>
	<rect x="1605.4" y="848.1" class="st8" width="12" height="42.9"/>
	<rect x="1581.4" y="848.1" class="st7" width="12" height="82.6"/>
	
		<rect x="1074.2" y="417.4" transform="matrix(6.123234e-17 -1 1 6.123234e-17 149.5717 2010.8406)" class="st7" width="12" height="1026.5"/>
	<rect x="567" y="848.1" class="st7" width="12" height="236.9"/>
</g>
</svg>
