<?xml version="1.0" encoding="utf-8"?>
<!-- Generator: Adobe Illustrator 27.4.1, SVG Export Plug-In . SVG Version: 6.00 Build 0)  -->
<svg version="1.1" xmlns="http://www.w3.org/2000/svg" xmlns:xlink="http://www.w3.org/1999/xlink" x="0px" y="0px"
	 viewBox="0 0 1920 1080" style="enable-background:new 0 0 1920 1080;" xml:space="preserve">
<style type="text/css">
	.st0{display:none;}
	.st1{fill:#91B5D3;}
	.st2{fill:#026BAD;}
	.st3{display:inline;fill:#D4E2E8;}
	.st4{display:inline;fill:#E5F4F9;}
	.st5{display:inline;fill:#D3D3D3;}
	.st6{display:inline;fill:#40B0E5;}
	.st7{display:inline;}
	.st8{fill:#40B0E5;}
	.st9{fill:#E34141;}
	.st10{fill:#AF9489;}
	.st11{fill:#9B8378;}
	.st12{fill:#E2AD41;}
	.st13{fill:#FFFFFF;stroke:#000000;stroke-width:8;stroke-linecap:round;stroke-miterlimit:10;}
	.st14{display:inline;fill:#436E39;}
	.st15{display:inline;fill:#665547;}
	.st16{display:inline;fill:#4C9935;}
	.st17{fill:#6BAA41;}
</style>
<g id="refs" class="st0">
	
		<image style="overflow:visible;" width="1294" height="732" xlink:href="BC33B5D9.jpg"  transform="matrix(1.5064 0 0 1.5064 -14.6596 -11.353)">
	</image>
	
		<image style="overflow:visible;" width="1331" height="744" xlink:href="BC33B5DB.jpg"  transform="matrix(1.4843 0 0 1.4843 -27.7872 -12.1515)">
	</image>
	
		<image style="display:inline;overflow:visible;" width="1320" height="745" xlink:href="BC33B5DE.jpg"  transform="matrix(1.4823 0 0 1.4823 -17.7981 -11.9813)">
	</image>
	
		<image style="overflow:visible;" width="1013" height="385" xlink:href="BC33B5DF.jpg"  transform="matrix(1 0 0 1 208.5426 241.9468)">
	</image>
</g>
<g id="sky">
	<rect x="-5" y="-5" class="st1" width="1930" height="1090"/>
</g>
<g id="water">
	<rect x="-5" y="882.1" class="st2" width="1930" height="202.9"/>
</g>
<g id="windmill_1" class="st0">
	<rect x="1719.5" y="389.5" class="st3" width="25.5" height="600.5"/>
	<path class="st4" d="M1833.1,335.7l-34.1,26.2l-49.1,37.8l-8.2,61.4l-5.7,42.6c-1,7.7-6.7,7.7-7.8,0l-5.7-42.6l-8.2-61.4l-49-37.8
		l-34.1-26.2c-6.1-4.7-3.3-9.7,3.9-6.7l39.8,16.4l57.3,23.6l57.2-23.6l39.8-16.4C1836.4,326.1,1839.2,331,1833.1,335.7z"/>
	<circle class="st3" cx="1732.2" cy="389.5" r="18"/>
	<circle class="st4" cx="1732.2" cy="389.5" r="16"/>
</g>
<g id="windmill_2" class="st0">
	<rect x="1602.5" y="389.5" class="st3" width="25.5" height="600.5"/>
	<path class="st4" d="M1716.1,335.7l-34.1,26.2l-49.1,37.8l-8.2,61.4l-5.7,42.6c-1,7.7-6.7,7.7-7.8,0l-5.7-42.6l-8.2-61.4l-49-37.8
		l-34.1-26.2c-6.1-4.7-3.3-9.7,3.9-6.7l39.8,16.4l57.3,23.6l57.2-23.6l39.8-16.4C1719.4,326.1,1722.2,331,1716.1,335.7z"/>
	<circle class="st3" cx="1615.2" cy="389.5" r="18"/>
	<circle class="st4" cx="1615.2" cy="389.5" r="16"/>
</g>
<g id="geothermie" class="st0">
	<path class="st5" d="M1565,857.3h-300.2V247.5h196.1c16.4,16.4,30.8,34.6,43.3,54.1c9.8,15.2,18.4,31.3,26.1,48
		c3,6.6,5.9,13.2,8.6,20c6.3,15.6,11.7,31.7,16.5,48c1.9,6.6,3.7,13.3,5.4,20c4,15.8,7.4,31.9,10.2,48c1.2,6.7,2.3,13.3,3.2,20
		c2.4,16,4.3,32.1,5.7,48C1594.1,711.8,1565,857.3,1565,857.3z"/>
	<path class="st6" d="M1530.2,349.7h-178.4c-13.3,0-24-10.7-24-24v0c0-13.3,10.7-24,24-24h152.3
		C1513.9,316.9,1522.6,333,1530.2,349.7z"/>
	<path class="st6" d="M1555.3,417.7h-203.5c-13.3,0-24-10.7-24-24v0c0-13.3,10.7-24,24-24h187
		C1545.1,385.3,1550.6,401.3,1555.3,417.7z"/>
	<path class="st6" d="M1571,485.7h-219.2c-13.3,0-24-10.7-24-24v0c0-13.3,10.7-24,24-24h208.9C1564.8,453.5,1568.1,469.6,1571,485.7
		z"/>
	<path class="st6" d="M1579.9,553.7h-228.1c-13.3,0-24-10.7-24-24l0,0c0-13.3,10.7-24,24-24h222.4
		C1576.6,521.7,1578.5,537.8,1579.9,553.7z"/>
	<g class="st7">
		<path class="st8" d="M1422.8,793.1l18-10.4l18-10.4c2.7-1.5,6,0.4,6,3.5v12.1c31.2-8.7,54.2-37.4,54.2-71.3c0-40.8-33.2-74-74-74
			c-3.3,0-6-2.7-6-6c0-3.3,2.7-6,6-6c47.4,0,86,38.6,86,86c0,40.6-28.3,74.7-66.2,83.7v17.1c0,3.1-3.3,5-6,3.5l-18-10.4l-18-10.4
			C1420.2,798.5,1420.2,794.7,1422.8,793.1z"/>
	</g>
	<g class="st7">
		<path class="st9" d="M1327,716.6c0-39.9,27.3-73.5,64.1-83.2v-17.6c0-3.1,3.3-5,6-3.5l18,10.4l18,10.4c2.7,1.5,2.7,5.4,0,6.9
			l-36,20.8c-2.7,1.5-6-0.4-6-3.5v-11.5c-30.2,9.3-52.1,37.5-52.1,70.7c0,40.8,33.2,74,74,74c3.3,0,6,2.7,6,6c0,3.3-2.7,6-6,6
			C1365.6,802.6,1327,764,1327,716.6z"/>
	</g>
</g>
<g id="house_1">
	
		<rect x="1338.9" y="651.4" transform="matrix(6.123234e-17 -1 1 6.123234e-17 804.5338 2267.2454)" class="st10" width="394" height="159.8"/>
	
		<rect x="1179.1" y="651.4" transform="matrix(-1.836970e-16 1 -1 -1.836970e-16 2107.4197 -644.708)" class="st11" width="394" height="160"/>
	<path class="st8" d="M1511.9,806.8V614.3c0-13.3,10.7-24,24-24l0,0c13.3,0,24,10.7,24,24v192.5c0,13.3-10.7,24-24,24l0,0
		C1522.6,830.8,1511.9,820,1511.9,806.8z"/>
	<path class="st8" d="M1352.1,806.8V614.3c0-13.3,10.7-24,24-24l0,0c13.3,0,24,10.7,24,24v192.5c0,13.3-10.7,24-24,24l0,0
		C1362.8,830.8,1352.1,820,1352.1,806.8z"/>
</g>
<g id="Layer_12">
	
		<rect x="861.7" y="541.1" transform="matrix(6.123234e-17 -1 1 6.123234e-17 437.6257 1679.7416)" class="st10" width="394" height="159.8"/>
	<path class="st8" d="M1010.7,720.2v-192c0-26.5,21.5-48,48-48h0c26.5,0,48,21.5,48,48v192H1010.7z"/>
	<rect x="661.7" y="150.1" class="st12" width="80" height="720"/>
	
		<rect x="881.7" y="-128.7" transform="matrix(-1.836970e-16 1 -1 -1.836970e-16 1133.0016 -670.3206)" class="st12" width="40" height="720"/>
	
		<rect x="661.7" y="608.1" transform="matrix(-1.836970e-16 1 -1 -1.836970e-16 1509.725 106.4027)" class="st12" width="80" height="400"/>
	<line class="st13" x1="978.8" y1="424.1" x2="1054.4" y2="231.3"/>
	<line class="st13" x1="1130.2" y1="424.1" x2="1054.6" y2="231.3"/>
	<circle cx="548.2" cy="825.1" r="22.5"/>
	<circle cx="593.2" cy="825.1" r="22.5"/>
	<circle cx="638.2" cy="825.1" r="22.5"/>
	<circle cx="683.2" cy="825.1" r="22.5"/>
	<circle cx="724.2" cy="825.1" r="22.5"/>
	<circle cx="769.2" cy="825.1" r="22.5"/>
	<circle cx="814.2" cy="825.1" r="22.5"/>
	<circle cx="859.2" cy="825.1" r="22.5"/>
</g>
<g id="tree_2" class="st0">
	<ellipse class="st14" cx="835" cy="517.9" rx="84.2" ry="54"/>
	<ellipse class="st14" cx="993.5" cy="517.9" rx="130.4" ry="63.9"/>
	<path class="st15" d="M803.2,858.3c0,0,63,0,64.9-114.2s-3.7-122.9-8.1-131c-4.4-8.1-25.2-52.4-24.1-71.1h44.7
		c0,0-8.1,73,17.5,79.2c25.6,6.2,40.6-64.9,40.6-68h35.6c0,0-33.7,73-40.6,81.1c-6.9,8.1-18.7,21.2-20.6,51.2
		c-1.9,29.9-7.5,169.1,20,172.8H803.2z"/>
	<ellipse class="st16" cx="835" cy="498" rx="84.2" ry="54"/>
	<ellipse class="st16" cx="993.5" cy="498" rx="130.4" ry="63.9"/>
	<ellipse class="st16" cx="919.2" cy="438.1" rx="130.4" ry="63.9"/>
	<ellipse class="st16" cx="949.8" cy="390.1" rx="94.8" ry="63.9"/>
	<ellipse class="st16" cx="1015.3" cy="438.1" rx="75.5" ry="63.9"/>
</g>
<g id="house_2">
</g>
<g id="tree_1" class="st0">
	<ellipse class="st14" cx="321.9" cy="579.7" rx="68.9" ry="44.2"/>
	<ellipse class="st14" cx="451.6" cy="579.7" rx="106.7" ry="52.3"/>
	<path class="st15" d="M295.8,858.3c0,0,51.6,0,53.1-93.4s-3.1-100.6-6.6-107.2c-3.6-6.6-20.6-42.9-19.8-58.2h36.6
		c0,0-6.6,59.7,14.3,64.9c20.9,5.1,33.2-53.1,33.2-55.7h29.1c0,0-27.6,59.7-33.2,66.4c-5.6,6.6-15.3,17.4-16.9,41.9
		c-1.5,24.5-6.1,138.4,16.3,141.4H295.8z"/>
	<ellipse class="st16" cx="321.9" cy="563.4" rx="68.9" ry="44.2"/>
	<ellipse class="st16" cx="451.6" cy="563.4" rx="106.7" ry="52.3"/>
	<ellipse class="st16" cx="390.8" cy="514.4" rx="106.7" ry="52.3"/>
	<ellipse class="st16" cx="415.8" cy="475.1" rx="77.6" ry="52.3"/>
	<ellipse class="st16" cx="469.4" cy="514.4" rx="61.8" ry="52.3"/>
</g>
<g id="grass">
	<polygon class="st17" points="1860.8,853.5 1802.2,853.5 1772.6,974.4 1751.5,974.4 1633.7,848.1 286.3,848.1 168.5,974.4 
		147.4,974.4 117.8,853.5 59.2,853.5 32.7,974.4 -5,974.4 -5,1085 1925,1085 1925,974.4 1887.3,974.4 	"/>
</g>
</svg>
